<svg width="300" height="263" viewBox="0 0 300 263" fill="none" xmlns="http://www.w3.org/2000/svg">
<path d="M191.038 9.20365C195.772 2.62117 203.463 -0.586892 211.003 0.0884123C222.452 -0.762783 233.928 4.8015 240.088 15.3706L295.245 110.006C298.567 115.706 299.858 122.028 299.337 128.134C299.27 133.205 297.949 138.33 295.246 143.043L235.48 247.282C226.987 262.093 208.071 267.229 193.231 258.753C181.65 252.14 175.973 239.192 178.072 226.785C219.891 214.682 250.46 176.17 250.46 130.533C250.46 100.435 237.164 73.4368 216.113 55.0689L202.244 74.357C195.123 84.2602 181.305 86.5267 171.382 79.4195L168.996 77.7105C159.073 70.6033 156.802 56.813 163.923 46.9097L186.385 15.6734C187.469 13.7599 188.764 11.9519 190.259 10.2867L191.038 9.20365Z" fill="#0D0D0D"/>
<path d="M63.2912 15.1763C72.0723 0.533797 91.0843 -4.23183 105.756 4.53177C116.564 10.9876 122.002 22.9843 120.606 34.7085C79.5244 47.2687 49.6516 85.4189 49.6516 130.533C49.6516 176.41 80.5439 215.087 122.7 226.973C124.299 238.706 119.03 250.823 108.284 257.445C93.736 266.411 74.6591 261.909 65.675 247.39L5.10077 149.495C2.26437 144.911 0.772746 139.876 0.517764 134.85C-0.803391 127.717 0.373245 120.091 4.3996 113.377L63.2912 15.1763Z" fill="#0D0D0D"/>
</svg>
